<?xml version="1.0" encoding="utf-8"?>
<!-- Generator: Adobe Illustrator 28.0.0, SVG Export Plug-In . SVG Version: 6.00 Build 0)  -->
<svg version="1.1" id="Слой_1" xmlns="http://www.w3.org/2000/svg" xmlns:xlink="http://www.w3.org/1999/xlink" x="0px" y="0px"
	 viewBox="0 0 1000 305.3" style="enable-background:new 0 0 1000 305.3;" xml:space="preserve">
<style type="text/css">
	.st0{fill:#EA5616;}
	.st1{fill:#2C2D84;}
</style>
<polygon class="st0" points="203.6,0 101.8,101.8 203.6,101.8 203.6,305.3 305.3,203.8 305.3,0 "/>
<polygon class="st1" points="101.8,305.3 203.6,203.6 101.8,203.6 101.8,0 0,101.5 0,305.3 "/>
<path class="st1" d="M407.1,254.5h53.4V96.7H542v157.8h53.4V50.9H407.1V254.5z M926.2,127.2h-45.7V96.7h101.7V50.9H827.1v203.6
	c0,0,76.2,0,101.6,0c40.7,0,71.3-20.4,71.3-63.6C1000,147.5,969.5,127.2,926.2,127.2 M921.1,211.2h-40.6v-40.7h40.6
	c12.6,0,25.4,5,25.4,20.3C946.5,206.1,933.7,211.2,921.1,211.2 M726.2,211.1c-35.7,0-55.7-26.1-55.7-58.5c0-26,14.6-58.5,54.7-58.5
	c25,0,41.2,15.3,46.9,22.4L804.6,84c-19.6-23.4-49-38.3-81.9-38.3c-59,0-105.6,43.7-105.6,106.9c0,59,46.6,106.9,105.6,106.9
	c35.3,0,66.7-17.2,86.1-43.6l-32.7-32.7C765.7,199.4,748.8,211.1,726.2,211.1"/>
</svg>
